<?xml version="1.0" encoding="UTF-8" standalone="no"?>
<svg width="100%" height="100%" viewBox="0 0 2917 1814" version="1.1" xmlns="http://www.w3.org/2000/svg" xmlns:xlink="http://www.w3.org/1999/xlink" xml:space="preserve" xmlns:serif="http://www.serif.com/" style="fill-rule:evenodd;clip-rule:evenodd;stroke-linejoin:round;stroke-miterlimit:2;">
    <rect id="Artboard1" x="0" y="0" width="2916.67" height="1813" style="fill:none;"/>
    <g id="Artboard11" serif:id="Artboard1">
        <g transform="matrix(4.58418,0,0,4.16667,-200.765,0)">
            <g id="SOLID-PT-BLUE" serif:id="SOLID PT BLUE" fill="#1438a8">
                <g>
                    <g transform="matrix(1.266,0,0,1.266,576.084,226.148)">
                        <path d="M0,165.064L-24.703,165.064L-36.609,132.627L-46.205,107.171L-61.784,65.731L-96.361,157.037L-98.827,163.541L-99.354,165.063L-124.082,165.064L-123.716,163.863L-116.842,145.535L-110.014,127.418L-108.838,124.744L-174.532,124.733L-168.697,109.051L-167.332,105.062L-154.013,69.729L-144.938,45.715L-142.484,39.806L-116.812,79.117L-119.008,85.228L-122.293,94.232L-113.212,94.31L-101.156,94.394L-97.637,94.436L-95.308,88.291L-75.254,35.011L-63.725,4.358L-61.899,-0.48L-61.6,0.238L-47.32,38.478L-45.763,42.643L-35.794,68.738L-26.084,94.345L-22.84,94.294L-1.859,94.157L-5.581,83.876L-7.755,77.699L17.976,38.607L20.423,44.465L27.771,63.692L33.992,80.55L45.68,111.751L50.582,124.943L45.751,124.783L-14.874,124.738C-14.226,126.495 -13.882,127.069 -13.377,128.416L-7.69,143.6C-7.69,143.6 0.138,164.659 0,165.064" style="fill-rule:nonzero;"/>
                    </g>
                    <g transform="matrix(1.266,0,0,1.266,680.041,107.016)">
                        <path d="M0,-61.103L-0.001,0.094L-1.506,0.11L-81.293,0.111L-104.156,-61.205L0,-61.103Z" style="fill-rule:nonzero;"/>
                    </g>
                    <g transform="matrix(1.266,0,0,1.266,498.745,151.409)">
                        <path d="M-0.627,-119.597L4.749,-104.897L7.79,-96.956L9.438,-92.495L14.98,-77.918L23.883,-54.217L26.031,-48.411L27.337,-44.885L32.203,-32.021L36.756,-19.816L38.017,-16.466L43.703,-0.06C42.935,-0.45 6.504,-31.26 6.504,-31.26L-0.627,-49.928L-7.771,-31.26L-45.511,-0.104L-0.627,-119.597Z" style="fill-rule:nonzero;"/>
                    </g>
                    <g transform="matrix(1.266,0,0,1.266,532.286,341.919)">
                        <path d="M0,73.618L-55.183,73.619L-27.6,-0.001L0,73.618Z" style="fill-rule:nonzero;"/>
                    </g>
                    <g transform="matrix(1.266,0,0,1.266,301.319,278.752)">
                        <path d="M0,-73.916C2.078,-81.641 2.398,-89.518 0.938,-97.274C-2.1,-113.422 -14.957,-123.688 -30.241,-127.953C-35.78,-129.376 -41.218,-130.139 -47.025,-130.14L-110.577,-130.144L-110.577,-47.852L-47.264,-47.859C-40.924,-47.86 -34.927,-48.499 -28.824,-49.837C-15.25,-53.138 -4.108,-59.786 0,-73.916M93.191,-113.438C95.863,-96.978 94.991,-76.395 91.47,-60.072C86.644,-37.694 76.063,-18.807 56.973,-5.738C39.993,5.886 20.439,11.604 0.167,14.5C-11.044,16.032 -22.209,16.718 -33.575,16.721L-110.574,16.74L-110.586,123.262L-203.377,123.289L-203.388,-194.635L-203.416,-197.204L-195.868,-197.204L101.643,-197.205L109.059,-197.204L99.408,-168.785L86.971,-135.478C89.961,-128.392 91.95,-121.087 93.191,-113.438" style="fill-rule:nonzero;"/>
                    </g>
                    <g transform="matrix(1.266,0,0,1.266,499.094,243.332)">
                        <path d="M0,-59.412L-1.496,-55.394L-10.251,-32.287L-15.492,-18.509L-29.374,18.425L-38.101,41.323L-38.171,-2.959L-1.11,-104.106L38.321,3.034L38.337,41.351C38.34,41.955 38.146,41.956 38.02,41.406L28.316,15.596L20.504,-5.149L18.658,-10.048L10.358,-31.969L0,-59.412Z" style="fill-rule:nonzero;"/>
                    </g>
                </g>
            </g>
        </g>
    </g>
</svg>
